<?xml version="1.0" encoding="UTF-8"?>
<svg width="25px" height="16px" viewBox="0 0 25 16" version="1.1" xmlns="http://www.w3.org/2000/svg" xmlns:xlink="http://www.w3.org/1999/xlink">
    <!-- Generator: Sketch 54.1 (76490) - https://sketchapp.com -->
    <title>Group 4</title>
    <desc>Created with Sketch.</desc>
    <defs>
        <polygon id="path-1" points="0.383571429 0.744380952 24.3585714 0.744380952 24.3585714 15.6609524 0.383571429 15.6609524"></polygon>
    </defs>
    <g id="Page-1" stroke="none" stroke-width="1" fill="none" fill-rule="evenodd">
        <g id="Home" transform="translate(-203.000000, -12.000000)">
            <g id="Group-9">
                <g id="Group-4" transform="translate(203.000000, 12.000000)">
                    <g id="Group-Copy">
                        <g id="Group-609">
                            <mask id="mask-2" fill="white">
                                <use xlink:href="#path-1"></use>
                            </mask>
                            <g id="Clip-603"></g>
                            <polygon id="Fill-602" fill="#0A0B09" mask="url(#mask-2)" points="0.383571429 15.6609524 24.3585714 15.6609524 24.3585714 10.6872381 0.383571429 10.6872381"></polygon>
                            <path d="M0.41,15.6365714 L24.3357143,15.6365714 L24.3357143,10.7146667 L0.41,10.7146667 L0.41,15.6365714 Z M0.361428571,15.6845714 L24.3821429,15.6845714 L24.3821429,10.6666667 L0.361428571,10.6666667 L0.361428571,15.6845714 Z" id="Fill-604" fill="#0A0B09" mask="url(#mask-2)"></path>
                            <polygon id="Fill-605" fill="#FFFFFE" mask="url(#mask-2)" points="0.383571429 10.6872381 24.3585714 10.6872381 24.3585714 5.71733333 0.383571429 5.71733333"></polygon>
                            <path d="M0.41,10.6666667 L24.3357143,10.6666667 L24.3357143,5.744 L0.41,5.744 L0.41,10.6666667 Z M0.361428571,10.7146667 L24.3821429,10.7146667 L24.3821429,5.69066667 L0.361428571,5.69066667 L0.361428571,10.7146667 Z" id="Fill-606" fill="#FFFFFE" mask="url(#mask-2)"></path>
                            <polygon id="Fill-607" fill="#A92534" mask="url(#mask-2)" points="0.383571429 5.71733333 24.3585714 5.71733333 24.3585714 0.744380952 0.383571429 0.744380952"></polygon>
                            <path d="M0.41,5.69066667 L24.3357143,5.69066667 L24.3357143,0.771047619 L0.41,0.771047619 L0.41,5.69066667 Z M0.361428571,5.744 L24.3821429,5.744 L24.3821429,0.72 L0.361428571,0.72 L0.361428571,5.744 Z" id="Fill-608" fill="#A92534" mask="url(#mask-2)"></path>
                        </g>
                        <path d="M12.2392857,10.5592381 C12.6964286,10.5592381 13.135,10.5211429 13.3914286,10.4434286 C13.5014286,10.4259048 13.5014286,10.3634286 13.5014286,10.2857143 C13.6107143,10.2468571 13.555,10.1104762 13.63,10.1104762 C13.555,10.1340952 13.5364286,9.97333333 13.4457143,9.99695238 C13.4457143,9.85752381 13.3164286,9.8392381 13.2071429,9.87809524 C12.99,9.95504762 12.6035714,9.97333333 12.2392857,9.97333333 C11.8735714,9.95504762 11.49,9.95504762 11.2678571,9.87809524 C11.1607143,9.8392381 11.0321429,9.85752381 11.0321429,9.99695238 C10.9414286,9.97333333 10.9235714,10.1340952 10.8485714,10.1104762 C10.9235714,10.1104762 10.8692857,10.2468571 10.975,10.2857143 C10.975,10.3634286 10.975,10.4259048 11.0892857,10.4434286 C11.3407143,10.5211429 11.78,10.5592381 12.2392857,10.5592381" id="Fill-610" fill="#FFFFFE"></path>
                        <path d="M10.9335714,10.2126852 C10.9385714,10.2241681 10.9414286,10.2423492 10.9442857,10.2576597 C10.9514286,10.3093325 10.9571429,10.3361258 10.9907143,10.3504794 C11.0085714,10.3581346 11.0214286,10.3811003 11.0214286,10.4069367 C11.0214286,10.5045409 11.0214286,10.5303773 11.0964286,10.5485585 C11.335,10.6423351 11.7621429,10.6911372 12.2392857,10.6911372 C12.715,10.6911372 13.1414286,10.6423351 13.3785714,10.5485585 C13.4557143,10.5303773 13.4557143,10.5045409 13.4557143,10.4069367 C13.4557143,10.3811003 13.4678571,10.3581346 13.4864286,10.3504794 C13.5214286,10.3361258 13.5257143,10.3093325 13.5364286,10.2576597 C13.5364286,10.2423492 13.5407143,10.2241681 13.5435714,10.2126852 C13.5335714,10.1935471 13.5214286,10.175366 13.51,10.1600555 C13.4892857,10.1189086 13.4764286,10.1007275 13.4614286,10.1007275 C13.4485714,10.1045551 13.4321429,10.1007275 13.4192857,10.085417 C13.4092857,10.0739341 13.3985714,10.0595806 13.3985714,10.0442701 C13.3985714,10.0146061 13.3985714,9.93231237 13.3064286,9.93231237 C13.28,9.93231237 13.2507143,9.9399676 13.2228571,9.95432116 C13.0385714,10.0366149 12.715,10.0739341 12.2392857,10.0739341 L12.0392857,10.0672358 C11.7342857,10.0480977 11.4414286,10.0366149 11.2557143,9.95432116 C11.2264286,9.9399676 11.1971429,9.93231237 11.1721429,9.93231237 C11.0785714,9.93231237 11.0785714,10.0146061 11.0785714,10.0442701 C11.0785714,10.0595806 11.0714286,10.0739341 11.06,10.085417 C11.0507143,10.1007275 11.0378571,10.1045551 11.0242857,10.1007275 C10.9985714,10.1045551 10.9878571,10.1189086 10.9671429,10.1600555 C10.9571429,10.175366 10.9457143,10.1935471 10.9335714,10.2126852 Z M12.2392857,10.8145778 C11.7435714,10.8145778 11.3228571,10.7581204 11.0757143,10.6681715 C10.9485714,10.6385074 10.9335714,10.5380325 10.9307143,10.4519112 C10.8735714,10.4069367 10.8607143,10.3284706 10.8535714,10.2796685 C10.8507143,10.2681856 10.8485714,10.2576597 10.8457143,10.2500045 C10.8428571,10.2500045 10.8371429,10.2500045 10.8357143,10.2500045 C10.815,10.2385216 10.7992857,10.2126852 10.8007143,10.1791936 C10.8035714,10.1485726 10.8242857,10.1265639 10.8485714,10.1265639 C10.8507143,10.1265639 10.8535714,10.1265639 10.8564286,10.1265639 L10.8592857,10.1265639 C10.8664286,10.1265639 10.8842857,10.0968998 10.8957143,10.0815894 C10.9178571,10.0442701 10.9457143,9.99546803 10.9935714,9.98111447 C11.0171429,9.83470817 11.1464286,9.77920775 11.2835714,9.83470817 C11.4592857,9.91317429 11.7414286,9.92848475 12.045,9.94379522 L12.2407143,9.95432116 C12.705,9.95432116 13.0192857,9.91700191 13.195,9.83470817 C13.3342857,9.77538013 13.4642857,9.83470817 13.4864286,9.9887697 C13.5364286,10.0069509 13.5614286,10.0480977 13.5828571,10.0815894 C13.5935714,10.0968998 13.6092857,10.1227362 13.6135714,10.1265639 C13.6214286,10.1265639 13.6271429,10.1265639 13.63,10.1265639 C13.6521429,10.1265639 13.6735714,10.1485726 13.6757143,10.1791936 C13.6785714,10.2126852 13.6635714,10.2385216 13.6428571,10.2500045 C13.64,10.2500045 13.6371429,10.2461768 13.6342857,10.2461768 C13.6314286,10.2500045 13.63,10.2500045 13.63,10.2500045 C13.63,10.2500045 13.63,10.2500045 13.6271429,10.2500045 C13.63,10.2538321 13.6271429,10.2653149 13.6242857,10.2796685 C13.6164286,10.3284706 13.6035714,10.4069367 13.5464286,10.4519112 C13.5435714,10.5380325 13.5278571,10.6385074 13.4014286,10.6681715 C13.1557143,10.7581204 12.73,10.8145778 12.2392857,10.8145778 L12.2392857,10.8145778 Z" id="Fill-611" fill="#E9C233"></path>
                        <path d="M11.1971429,10.071619 C11.1607143,10.071619 11.1607143,10.0952381 11.1971429,10.0952381 C11.2135714,10.0952381 11.2135714,10.071619 11.1971429,10.071619" id="Fill-612" fill="#EFCD3F"></path>
                        <path d="M11.1971429,10.1219048 C11.1478571,10.1219048 11.1464286,10.0891429 11.1464286,10.0830476 C11.1464286,10.0594286 11.1771429,10.0449524 11.1971429,10.0449524 C11.2107143,10.0449524 11.2335714,10.0685714 11.2335714,10.0830476 C11.2335714,10.0952381 11.2107143,10.1219048 11.1971429,10.1219048" id="Fill-613" fill="#E9C233"></path>
                        <path d="M11.1971429,9.99695238 C11.1771429,9.99695238 11.1771429,10.0327619 11.1971429,10.0327619 C11.2335714,10.0327619 11.2335714,9.99695238 11.1971429,9.99695238" id="Fill-614" fill="#EFCD3F"></path>
                        <path d="M11.1971429,10.056381 C11.1842857,10.056381 11.1592857,10.0266667 11.1592857,10.0152381 C11.1592857,10 11.1842857,9.97028571 11.1971429,9.97028571 C11.2321429,9.97028571 11.25,9.99390476 11.25,10.0152381 C11.25,10.0358095 11.2321429,10.056381 11.1971429,10.056381" id="Fill-615" fill="#E9C233"></path>
                        <path d="M11.1971429,10.2857143 C11.1771429,10.2857143 11.1771429,10.3245714 11.1971429,10.3245714 C11.2135714,10.3245714 11.2135714,10.2857143 11.1971429,10.2857143" id="Fill-616" fill="#EFCD3F"></path>
                        <path d="M11.1971429,10.3512381 C11.1842857,10.3512381 11.1592857,10.3215238 11.1592857,10.3062857 C11.1592857,10.2918095 11.1842857,10.2590476 11.1971429,10.2590476 C11.2107143,10.2590476 11.2335714,10.2918095 11.2335714,10.3062857 C11.2335714,10.3215238 11.2107143,10.3512381 11.1971429,10.3512381" id="Fill-617" fill="#E9C233"></path>
                        <path d="M11.2678571,10.3062857 C11.2335714,10.3062857 11.2335714,10.3451429 11.2678571,10.3451429 C11.2892857,10.3451429 11.2892857,10.3062857 11.2678571,10.3062857" id="Fill-618" fill="#EFCD3F"></path>
                        <path d="M11.2678571,10.3718095 C11.2357143,10.3718095 11.2192857,10.3481905 11.2192857,10.327619 C11.2192857,10.3032381 11.2471429,10.2826667 11.2678571,10.2826667 C11.2835714,10.2826667 11.3085714,10.3154286 11.3085714,10.327619 C11.3085714,10.3481905 11.2892857,10.3718095 11.2678571,10.3718095" id="Fill-619" fill="#E9C233"></path>
                        <path d="M11.3407143,10.3245714 C11.3264286,10.3245714 11.3264286,10.3634286 11.3407143,10.3634286 C11.3785714,10.3634286 11.3785714,10.3245714 11.3407143,10.3245714" id="Fill-620" fill="#EFCD3F"></path>
                        <path d="M11.3407143,10.3900952 C11.3292857,10.3900952 11.3057143,10.360381 11.3057143,10.3420952 C11.3057143,10.3306667 11.3292857,10.3009524 11.3407143,10.3009524 C11.3771429,10.3009524 11.395,10.3245714 11.395,10.3420952 C11.395,10.3634286 11.3771429,10.3900952 11.3407143,10.3900952" id="Fill-621" fill="#E9C233"></path>
                        <path d="M12.4778571,10.1340952 C12.4578571,10.1340952 12.4578571,10.1699048 12.4778571,10.1699048 C12.4942857,10.1699048 12.4942857,10.1340952 12.4778571,10.1340952" id="Fill-622" fill="#EFCD3F"></path>
                        <path d="M12.4778571,10.1965714 C12.4607143,10.1965714 12.4385714,10.1668571 12.4385714,10.151619 C12.4385714,10.1371429 12.4607143,10.104381 12.4778571,10.104381 C12.49,10.104381 12.515,10.1371429 12.515,10.151619 C12.515,10.1668571 12.49,10.1965714 12.4778571,10.1965714" id="Fill-623" fill="#E9C233"></path>
                        <path d="M12.4942857,10.208 C12.4578571,10.208 12.4578571,10.2262857 12.4942857,10.2262857 C12.5142857,10.2262857 12.5142857,10.208 12.4942857,10.208" id="Fill-624" fill="#EFCD3F"></path>
                        <path d="M12.55,10.4015238 C12.5307143,10.4015238 12.5307143,10.4434286 12.55,10.4434286 C12.5671429,10.4434286 12.5671429,10.4015238 12.55,10.4015238" id="Fill-625" fill="#EFCD3F"></path>
                        <path d="M12.55,10.4731429 C12.5335714,10.4731429 12.5142857,10.440381 12.5142857,10.4228571 C12.5142857,10.407619 12.5335714,10.3748571 12.55,10.3748571 C12.5628571,10.3748571 12.5878571,10.407619 12.5878571,10.4228571 C12.5878571,10.440381 12.5628571,10.4731429 12.55,10.4731429" id="Fill-626" fill="#E9C233"></path>
                        <path d="M12.6242857,10.4015238 C12.5864286,10.4015238 12.5864286,10.4434286 12.6242857,10.4434286 C12.6392857,10.4434286 12.6392857,10.4015238 12.6242857,10.4015238" id="Fill-627" fill="#EFCD3F"></path>
                        <path d="M12.6242857,10.4731429 C12.5878571,10.4731429 12.57,10.4464762 12.57,10.4228571 C12.57,10.4015238 12.5878571,10.3748571 12.6242857,10.3748571 C12.6364286,10.3748571 12.6607143,10.407619 12.6607143,10.4228571 C12.6607143,10.4434286 12.6421429,10.4731429 12.6242857,10.4731429" id="Fill-628" fill="#E9C233"></path>
                        <path d="M13.3735714,10.2468571 C13.3371429,10.2468571 13.3371429,10.2704762 13.3735714,10.2704762 C13.3914286,10.2704762 13.3914286,10.2468571 13.3735714,10.2468571" id="Fill-629" fill="#EFCD3F"></path>
                        <path d="M13.3735714,10.2948571 C13.3228571,10.2948571 13.3214286,10.2651429 13.3214286,10.2590476 C13.3214286,10.2354286 13.3521429,10.2201905 13.3735714,10.2201905 C13.3857143,10.2201905 13.4121429,10.2438095 13.4121429,10.2590476 C13.4121429,10.2735238 13.3857143,10.2948571 13.3735714,10.2948571" id="Fill-630" fill="#E9C233"></path>
                        <path d="M11.395,10.3215238 C11.3785714,10.3215238 11.3657143,10.3184762 11.3535714,10.312381 C11.335,10.3062857 11.3142857,10.3009524 11.2985714,10.2857143 C11.2835714,10.2857143 11.265,10.2826667 11.2414286,10.2735238 C11.2264286,10.2735238 11.19,10.2438095 11.19,10.184381 C11.2057143,10.1485714 11.2207143,10.0952381 11.2335714,10.0358095 L11.2471429,9.98780952 C11.25,9.97638095 11.2628571,9.9672381 11.275,9.97333333 C11.2892857,9.97333333 11.2957143,9.98780952 11.2935714,10 L11.2807143,10.0502857 C11.265,10.1127619 11.2528571,10.1668571 11.2357143,10.199619 C11.2385714,10.208 11.2471429,10.2201905 11.25,10.2201905 C11.265,10.2262857 11.2778571,10.232381 11.2864286,10.2354286 C11.2892857,10.2201905 11.2935714,10.208 11.2957143,10.1965714 C11.3014286,10.1607619 11.3085714,10.1401905 11.3228571,10.1340952 C11.3264286,10.1401905 11.3321429,10.151619 11.3407143,10.1668571 L11.3507143,10.1699048 C11.3507143,10.1729524 11.3507143,10.1813333 11.3478571,10.1904762 C11.3478571,10.1935238 11.3478571,10.1965714 11.3478571,10.199619 C11.3421429,10.2201905 11.3407143,10.2384762 11.335,10.2468571 C11.3378571,10.2499048 11.345,10.256 11.3657143,10.2620952 C11.3814286,10.2681905 11.395,10.2704762 11.4021429,10.2681905 C11.4135714,10.2620952 11.42,10.2407619 11.4257143,10.2026667 L11.4342857,10.208 L11.4107143,10.1752381 C11.4142857,10.1668571 11.4342857,10.1607619 11.4464286,10.1638095 C11.4564286,10.1668571 11.4742857,10.199619 11.4742857,10.208 C11.4678571,10.256 11.4535714,10.2948571 11.4257143,10.312381 C11.4142857,10.3215238 11.405,10.3215238 11.395,10.3215238" id="Fill-631" fill="#E9C233"></path>
                        <path d="M11.25,10.2735238 C11.25,10.2735238 11.2471429,10.2735238 11.2442857,10.2735238 C11.1871429,10.256 11.1535714,10.2232381 11.1535714,10.1874286 C11.1535714,10.1668571 11.1692857,10.1371429 11.2292857,10.1249524 C11.2414286,10.1249524 11.2557143,10.1310476 11.26,10.1455238 C11.26,10.1607619 11.2528571,10.1699048 11.2385714,10.1729524 C11.2078571,10.1782857 11.2028571,10.1904762 11.2028571,10.1904762 C11.2028571,10.1935238 11.2207143,10.2110476 11.2571429,10.2201905 C11.2678571,10.2262857 11.275,10.2407619 11.2721429,10.2529524 C11.2692857,10.2651429 11.2628571,10.2735238 11.25,10.2735238" id="Fill-632" fill="#E9C233"></path>
                        <path d="M11.7771429,10.4342857 C11.7678571,10.4342857 11.7492857,10.4259048 11.7435714,10.4198095 C11.7414286,10.4289524 11.7021429,10.4167619 11.7021429,10.3451429 C11.695,10.3451429 11.6742857,10.3390476 11.6614286,10.3306667 C11.6157143,10.3512381 11.5628571,10.3573333 11.5292857,10.3420952 C11.5164286,10.3634286 11.5014286,10.3779048 11.4828571,10.3870476 C11.4678571,10.3931429 11.4535714,10.3870476 11.4492857,10.3748571 C11.4414286,10.3634286 11.4492857,10.3451429 11.4621429,10.3390476 C11.4742857,10.3337143 11.4857143,10.3245714 11.4928571,10.312381 C11.4857143,10.3009524 11.4828571,10.2857143 11.4828571,10.2704762 C11.4771429,10.2590476 11.4721429,10.232381 11.4828571,10.2140952 C11.5235714,10.208 11.54,10.2232381 11.55,10.2590476 C11.55,10.2735238 11.55,10.2857143 11.5471429,10.2948571 C11.5628571,10.3009524 11.5892857,10.3009524 11.62,10.2918095 C11.5985714,10.2651429 11.5957143,10.2293333 11.61,10.2057143 C11.625,10.1699048 11.6614286,10.151619 11.6978571,10.1668571 C11.7285714,10.1782857 11.7435714,10.208 11.7414286,10.2407619 C11.7414286,10.2681905 11.7314286,10.2918095 11.7107143,10.3062857 C11.7214286,10.312381 11.7285714,10.3215238 11.7385714,10.3245714 C11.7521429,10.3748571 11.7578571,10.3748571 11.765,10.3748571 C11.7742857,10.3748571 11.7942857,10.3420952 11.7942857,10.3062857 L11.7942857,10.1340952 C11.7942857,10.104381 11.8428571,10.104381 11.8428571,10.1340952 L11.8428571,10.3062857 C11.8428571,10.3542857 11.8164286,10.4167619 11.7857143,10.4312381 C11.7828571,10.4312381 11.78,10.4342857 11.7771429,10.4342857" id="Fill-633" fill="#E9C233"></path>
                        <path d="M11.8735714,10.3718095 C11.8607143,10.3718095 11.8471429,10.360381 11.8471429,10.3451429 C11.8471429,10.3184762 11.8528571,10.2735238 11.8607143,10.232381 C11.8664286,10.1935238 11.8678571,10.1607619 11.8678571,10.1340952 C11.8678571,10.104381 11.9171429,10.104381 11.9171429,10.1340952 C11.9171429,10.1638095 11.9128571,10.199619 11.9071429,10.2407619 C11.9028571,10.279619 11.8971429,10.3215238 11.8971429,10.3451429 C11.8971429,10.360381 11.8864286,10.3718095 11.8735714,10.3718095" id="Fill-634" fill="#E9C233"></path>
                        <path d="M12.1664053,10.3706466 L12.2714053,10.3706466 C12.3654053,10.3706466 12.3794053,10.4257845 12.3794053,10.4568622 L12.4084053,10.4067368 C12.4124053,10.3786667 12.4164053,10.3636291 12.4124053,10.351599 C12.3514053,10.3676391 12.2504053,10.359619 12.2054053,10.3355589 C12.1994053,10.3355589 12.1834053,10.3395689 12.1744053,10.3395689 C12.1744053,10.351599 12.1704053,10.3636291 12.1664053,10.3706466 Z M11.9374053,10.5711479 C11.9294053,10.5711479 11.9204053,10.5671378 11.9124053,10.5591178 C11.8984053,10.5430777 11.9024053,10.5200201 11.9204053,10.50799 C11.9704053,10.4688922 11.9924053,10.4418246 12.0004053,10.4097444 C11.9844053,10.4027268 11.9724053,10.3866867 11.9634053,10.3786667 C11.9454053,10.347589 11.9454053,10.3165113 11.9554053,10.3004712 C11.9634053,10.2884411 11.9924053,10.2774135 12.0064053,10.2774135 C12.0314053,10.2774135 12.0564053,10.3044812 12.0724053,10.347589 C12.0724053,10.355609 12.0744053,10.3636291 12.0724053,10.3706466 C12.0784053,10.3706466 12.0864053,10.3706466 12.0934053,10.3706466 C12.0934053,10.3706466 12.1034053,10.3636291 12.1034053,10.3245313 C12.0934053,10.3125013 12.0864053,10.3044812 12.0864053,10.2844311 C12.0864053,10.2613734 12.1114053,10.2262857 12.1294053,10.2262857 C12.1484053,10.2262857 12.1664053,10.2533534 12.1744053,10.2693935 C12.1834053,10.2693935 12.1994053,10.2693935 12.2204053,10.2693935 C12.2774053,10.3004712 12.3794053,10.2964612 12.4024053,10.2814236 C12.4634053,10.2693935 12.4844053,10.3125013 12.4844053,10.3826767 C12.4844053,10.3866867 12.4704053,10.4338045 12.4674053,10.4378145 C12.4494053,10.4849323 12.4334053,10.51601 12.4024053,10.5240301 C12.3694053,10.5280401 12.3404053,10.50799 12.3224053,10.4849323 C12.3104053,10.4498446 12.3104053,10.4418246 12.2714053,10.4418246 L12.0934053,10.4418246 C12.0824053,10.4418246 12.0724053,10.4418246 12.0644053,10.4378145 C12.0514053,10.4769123 12.0214053,10.51601 11.9594053,10.5631278 C11.9554053,10.5671378 11.9494053,10.5711479 11.9374053,10.5711479 L11.9374053,10.5711479 Z" id="Fill-635" fill="#E9C233"></path>
                        <path d="M12.3685714,10.3900952 C12.3607143,10.3900952 12.3578571,10.3870476 12.355,10.384 C12.3364286,10.3809524 12.3271429,10.384 12.3185714,10.3870476 C12.3035714,10.3870476 12.2821429,10.3748571 12.2821429,10.3634286 C12.2821429,10.3481905 12.2792857,10.336 12.2964286,10.336 L12.2964286,10.3634286 L12.3085714,10.3337143 C12.3157143,10.3337143 12.3242857,10.3306667 12.3357143,10.3306667 C12.3357143,10.3032381 12.345,10.2857143 12.3521429,10.279619 C12.3685714,10.2590476 12.3914286,10.256 12.4121429,10.2651429 C12.4357143,10.2765714 12.4485714,10.3009524 12.4485714,10.3245714 C12.4485714,10.3634286 12.3942857,10.3900952 12.3685714,10.3900952" id="Fill-636" fill="#E9C233"></path>
                        <path d="M12.515,10.384 C12.5085714,10.384 12.5,10.384 12.4942857,10.3809524 C12.485,10.3779048 12.4721429,10.3573333 12.4721429,10.3451429 C12.4928571,10.312381 12.515,10.2979048 12.5364286,10.2918095 C12.5421429,10.2499048 12.5392857,10.1904762 12.5264286,10.1401905 C12.5207143,10.128 12.5292857,10.1104762 12.5421429,10.1074286 C12.5571429,10.104381 12.57,10.1127619 12.5728571,10.128 C12.5864286,10.1752381 12.5935714,10.2499048 12.5864286,10.3062857 C12.5907143,10.3062857 12.6228571,10.3215238 12.6242857,10.3215238 C12.6421429,10.3215238 12.6507143,10.312381 12.6535714,10.2765714 C12.6392857,10.2590476 12.6271429,10.2354286 12.6328571,10.2262857 C12.6364286,10.2140952 12.6592857,10.2057143 12.6714286,10.208 C12.6814286,10.208 12.7021429,10.2354286 12.7021429,10.2468571 C12.7021429,10.2529524 12.6992857,10.2590476 12.6992857,10.2651429 C12.7021429,10.2681905 12.7021429,10.2704762 12.6992857,10.2735238 C12.6964286,10.3481905 12.6785714,10.3718095 12.6242857,10.3718095 C12.5992857,10.384 12.5778571,10.3779048 12.5657143,10.3687619 C12.5657143,10.3657143 12.5628571,10.3657143 12.5628571,10.3634286 C12.5471429,10.3779048 12.5292857,10.384 12.515,10.384" id="Fill-637" fill="#E9C233"></path>
                        <path d="M12.7328571,10.4495238 C12.7285714,10.4495238 12.7207143,10.4464762 12.7178571,10.440381 C12.7078571,10.4342857 12.7078571,10.4137143 12.7178571,10.4045714 C12.7328571,10.3870476 12.7485714,10.3634286 12.7564286,10.336 C12.715,10.3154286 12.7078571,10.2857143 12.7078571,10.2704762 C12.7078571,10.2590476 12.7078571,10.2232381 12.7328571,10.2110476 C12.7592857,10.2057143 12.7821429,10.2262857 12.8028571,10.2499048 C12.8321429,10.3093333 12.7928571,10.3984762 12.7514286,10.440381 C12.7457143,10.4464762 12.7414286,10.4495238 12.7328571,10.4495238" id="Fill-638" fill="#E9C233"></path>
                        <path d="M12.8628571,10.4106667 C12.8528571,10.4106667 12.8421429,10.4015238 12.8392857,10.3961905 C12.835,10.3809524 12.8392857,10.3634286 12.8528571,10.360381 C12.8714286,10.3542857 12.8807143,10.3420952 12.8864286,10.3337143 C12.8471429,10.3337143 12.8321429,10.3184762 12.8292857,10.2979048 C12.8235714,10.2704762 12.8378571,10.2438095 12.8657143,10.2232381 C12.8735714,10.2201905 12.9021429,10.2110476 12.9071429,10.2140952 C12.9271429,10.2232381 12.9378571,10.2468571 12.9407143,10.2826667 C13.005,10.2704762 13.0957143,10.2468571 13.1585714,10.2057143 C13.1685714,10.1965714 13.1864286,10.199619 13.1921429,10.2110476 C13.1992857,10.2262857 13.1978571,10.2407619 13.1835714,10.2468571 C13.1057143,10.3009524 13.0078571,10.3245714 12.9378571,10.3306667 C12.93,10.360381 12.9171429,10.3900952 12.8714286,10.407619 C12.8685714,10.4106667 12.8657143,10.4106667 12.8628571,10.4106667" id="Fill-639" fill="#E9C233"></path>
                        <path d="M13.0807143,10.336 C13.0721429,10.336 13.0621429,10.3337143 13.055,10.3306667 C13.0385714,10.3093333 13.0285714,10.2857143 13.0207143,10.256 C13.0164286,10.2681905 13.0164286,10.279619 13.0164286,10.2857143 C13.0164286,10.3184762 12.9657143,10.3184762 12.9657143,10.2857143 C12.9657143,10.2468571 12.9828571,10.208 13.005,10.1935238 C13.0021429,10.1904762 13.0021429,10.1813333 13.0021429,10.1752381 L12.9842857,10.1013333 C12.9828571,10.0891429 12.9871429,10.071619 12.9992857,10.0685714 C13.0164286,10.0624762 13.0285714,10.071619 13.0314286,10.0891429 L13.05,10.1668571 C13.05,10.1699048 13.0521429,10.1699048 13.0521429,10.1729524 C13.0621429,10.1699048 13.0778571,10.1729524 13.0957143,10.1782857 C13.1221429,10.1935238 13.1414286,10.2171429 13.1414286,10.2468571 C13.15,10.2620952 13.1471429,10.2948571 13.1292857,10.3184762 C13.1164286,10.3306667 13.0985714,10.336 13.0807143,10.336" id="Fill-640" fill="#E9C233"></path>
                        <path d="M13.2171429,10.2857143 C13.1835714,10.2857143 13.1585714,10.2651429 13.1471429,10.2354286 C13.1442857,10.2293333 13.1471429,10.1965714 13.15,10.1904762 C13.1778571,10.1401905 13.2642857,10.1340952 13.2978571,10.1699048 C13.3107143,10.2026667 13.3064286,10.2201905 13.295,10.2438095 C13.28,10.2651429 13.2464286,10.2857143 13.2171429,10.2857143" id="Fill-641" fill="#E9C233"></path>
                        <path d="M13.3707143,10.2140952 C13.3564286,10.2140952 13.3471429,10.2110476 13.34,10.208 C13.2978571,10.184381 13.2771429,10.128 13.2771429,10.0327619 C13.2771429,10.0152381 13.2714286,10 13.2592857,10 C13.2435714,9.99085714 13.2228571,10 13.21,10.0121905 C13.1992857,10.0205714 13.1835714,10.0205714 13.1735714,10.0121905 C13.1657143,10.0030476 13.1657143,9.9847619 13.1735714,9.97942857 C13.2014286,9.94666667 13.2464286,9.93447619 13.28,9.94971429 C13.3078571,9.96419048 13.3228571,9.99390476 13.3228571,10.0327619 C13.3228571,10.1158095 13.3442857,10.1546667 13.3621429,10.1668571 C13.3707143,10.1668571 13.3785714,10.1668571 13.3857143,10.1668571 C13.3857143,10.1668571 13.3857143,10.1638095 13.3885714,10.1607619 C13.3928571,10.1485714 13.4192857,10.1188571 13.4321429,10.1249524 C13.4428571,10.128 13.4528571,10.1607619 13.4528571,10.1699048 C13.4164286,10.208 13.3885714,10.2140952 13.3707143,10.2140952" id="Fill-642" fill="#E9C233"></path>
                        <path d="M12.2571429,8.32457143 L13.8307143,9.87809524 L13.7192857,7.05066667 C13.7028571,6.62171429 13.3521429,6.71695238 13.0985714,6.87238095 C12.8421429,7.05066667 12.55,7.05066667 12.2392857,6.93485714 C11.9278571,7.05066667 11.635,7.05066667 11.3785714,6.87238095 C11.1257143,6.71695238 10.7757143,6.62171429 10.76,7.05066667 L10.6457143,9.87809524 L12.2571429,8.32457143" id="Fill-643" fill="#FFFFFE"></path>
                        <path d="M11.0028571,6.768 C10.8635714,6.768 10.7907143,6.86019048 10.7842857,7.05066667 L10.675,9.81866667 L12.2407143,8.3032381 C12.2485714,8.29180952 12.2642857,8.29180952 12.2757143,8.3032381 L13.8057143,9.81866667 L13.6942857,7.05066667 C13.6828571,6.72914286 13.4485714,6.69028571 13.1107143,6.896 C12.8685714,7.06285714 12.57,7.08647619 12.2307143,6.95847619 C11.9278571,7.08647619 11.6128571,7.06285714 11.3657143,6.896 C11.2321429,6.8152381 11.1021429,6.768 11.0028571,6.768 Z M10.6457143,9.90171429 C10.6428571,9.90171429 10.6392857,9.90171429 10.6364286,9.90171429 C10.6278571,9.89866667 10.6221429,9.8872381 10.6221429,9.87504762 L10.7335714,7.04761905 C10.745,6.77409524 10.8871429,6.71466667 11.0028571,6.71466667 C11.1478571,6.71466667 11.3085714,6.8007619 11.3921429,6.848 C11.625,7.0087619 11.9071429,7.02704762 12.2307143,6.90742857 C12.5935714,7.02704762 12.8528571,7.0087619 13.0857143,6.848 C13.1685714,6.8007619 13.3314286,6.71466667 13.4707143,6.71466667 C13.5907143,6.71466667 13.7335714,6.77409524 13.7428571,7.04761905 L13.8542857,9.87504762 C13.8542857,9.8872381 13.8492857,9.89866667 13.8421429,9.90171429 C13.8335714,9.9047619 13.8214286,9.9047619 13.8128571,9.89866667 L12.2571429,8.35733333 L10.6614286,9.89866667 C10.6585714,9.90171429 10.6542857,9.90171429 10.6457143,9.90171429 L10.6457143,9.90171429 Z" id="Fill-644" fill="#E9C233"></path>
                        <path d="M12.4942857,7.03009524 C12.5864286,7.08952381 12.6757143,7.08952381 12.7328571,7.08952381 C12.55,6.94933333 12.4942857,6.58057143 12.5142857,6.42590476 C12.55,6.1127619 12.4778571,5.94057143 12.2964286,5.89866667 C12.26,5.89866667 12.2392857,5.87809524 12.1664286,5.87809524 C12.1121429,5.85980952 12.0678571,5.91695238 12.0464286,5.95504762 C11.9921429,5.91695238 11.9464286,5.94057143 11.8914286,5.89866667 C11.8371429,5.87809524 11.7435714,5.89866667 11.7435714,6.03580952 L11.78,6.02057143 C11.7985714,6.02361905 11.8278571,6.04190476 11.8664286,6.06247619 C11.9128571,6.10133333 11.9792857,6.13409524 12.0007143,6.26819048 C12.0392857,6.56228571 12.0007143,6.83047619 11.7435714,7.08952381 C11.8007143,7.08952381 11.8914286,7.08952381 11.9792857,7.03009524 C11.9464286,7.08952381 11.9278571,7.10704762 11.8914286,7.14895238 C12.0007143,7.12761905 12.0942857,7.08952381 12.1457143,6.9912381 C12.1664286,7.03009524 12.2178571,7.08952381 12.2392857,7.12761905 C12.26,7.08952381 12.3114286,7.03009524 12.3328571,6.9912381 C12.3842857,7.08952381 12.4778571,7.12761905 12.5864286,7.14895238 C12.55,7.10704762 12.5307143,7.08952381 12.4942857,7.03009524" id="Fill-645" fill="#FFFFFE"></path>
                        <path d="M12.33,6.94628571 L12.3521429,6.98209524 C12.3842857,7.03847619 12.4385714,7.08038095 12.5178571,7.104 C12.5085714,7.08952381 12.4942857,7.0712381 12.4778571,7.04457143 L12.5085714,7.0087619 C12.5628571,7.04457143 12.6228571,7.0567619 12.6714286,7.05980952 C12.515,6.89295238 12.475,6.56838095 12.49,6.42590476 C12.5235714,6.12190476 12.4578571,5.95809524 12.2907143,5.92228571 C12.2771429,5.93142857 12.2628571,5.92 12.2464286,5.91390476 C12.2264286,5.90780952 12.2028571,5.9047619 12.1607143,5.9047619 C12.1035714,5.9047619 12.0757143,5.9527619 12.0678571,5.9672381 L12.0578571,5.99085714 L12.0371429,5.97942857 C12.0128571,5.95809524 11.9892857,5.95504762 11.9671429,5.9527619 C11.9407143,5.94666667 11.91,5.94361905 11.8807143,5.92 C11.8664286,5.91695238 11.7885714,5.89257143 11.7707143,5.99695238 C11.8035714,5.99695238 11.8278571,6.0152381 11.8607143,6.0327619 L11.9,6.06247619 C11.9492857,6.09828571 12.0064286,6.14019048 12.0242857,6.26514286 C12.0521429,6.49142857 12.0492857,6.78857143 11.8007143,7.05980952 C11.8528571,7.05980952 11.9128571,7.04457143 11.97,7.0087619 L12.0007143,7.04457143 C11.985,7.0712381 11.9728571,7.08952381 11.9585714,7.104 C12.0421429,7.08038095 12.0942857,7.03847619 12.1278571,6.98209524 L12.1485714,6.94628571 L12.1664286,6.98209524 C12.1764286,6.99733333 12.1914286,7.02095238 12.21,7.04457143 C12.2207143,7.0567619 12.2307143,7.06819048 12.2392857,7.08342857 C12.2485714,7.06819048 12.2571429,7.0567619 12.2671429,7.04457143 C12.2821429,7.02095238 12.3007143,6.99733333 12.3114286,6.98209524 L12.33,6.94628571 Z M11.825,7.1847619 L11.8764286,7.13066667 C11.8892857,7.11619048 11.9,7.10095238 11.9128571,7.09257143 C11.8471429,7.11314286 11.7857143,7.11314286 11.7435714,7.11314286 L11.685,7.11314286 L11.7314286,7.06819048 C11.9464286,6.85409524 12.0242857,6.61638095 11.9771429,6.27047619 C11.9642857,6.16685714 11.92,6.13714286 11.8764286,6.10133333 L11.85,6.08304762 C11.8135714,6.06247619 11.7885714,6.04495238 11.7771429,6.04495238 L11.7228571,6.07161905 L11.7228571,6.03580952 C11.7228571,5.87809524 11.8307143,5.84838095 11.9,5.87504762 C11.9278571,5.89561905 11.9492857,5.89866667 11.9728571,5.9047619 C11.9921429,5.90780952 12.0157143,5.91085714 12.0421429,5.92228571 C12.0607143,5.89257143 12.0971429,5.84838095 12.1457143,5.84838095 C12.21,5.85447619 12.2392857,5.85980952 12.26,5.86895238 C12.2728571,5.872 12.2821429,5.872 12.2964286,5.872 C12.4942857,5.91695238 12.5728571,6.10133333 12.5335714,6.4312381 C12.5178571,6.58895238 12.575,6.94019048 12.7457143,7.06514286 L12.8085714,7.11314286 L12.7328571,7.11314286 C12.6928571,7.11314286 12.6328571,7.11314286 12.5671429,7.09257143 C12.575,7.10095238 12.5878571,7.11619048 12.6007143,7.13371429 L12.6535714,7.18171429 L12.5807143,7.17257143 C12.4971429,7.15809524 12.3964286,7.12533333 12.3328571,7.03542857 C12.3242857,7.04761905 12.3128571,7.05980952 12.3035714,7.07428571 C12.285,7.09790476 12.27,7.1192381 12.26,7.1367619 L12.2392857,7.17561905 L12.2178571,7.1367619 C12.21,7.1192381 12.1914286,7.09790476 12.1764286,7.07428571 C12.1664286,7.05980952 12.1557143,7.04761905 12.1457143,7.03542857 C12.0814286,7.12533333 11.9792857,7.15809524 11.8971429,7.17257143 L11.825,7.1847619 L11.825,7.1847619 Z" id="Fill-646" fill="#E9C233"></path>
                        <path d="M12.5085714,7.07428571 C12.5,7.07428571 12.49,7.06819048 12.485,7.05980952 C12.4328571,6.94933333 12.3785714,6.82742857 12.3785714,6.65752381 C12.3785714,6.63085714 12.4271429,6.63085714 12.4271429,6.65752381 C12.4271429,6.8152381 12.475,6.92571429 12.5292857,7.03542857 C12.5335714,7.05066667 12.5292857,7.06285714 12.5178571,7.0712381 C12.515,7.07428571 12.5142857,7.07428571 12.5085714,7.07428571" id="Fill-647" fill="#E9C233"></path>
                        <path d="M12.3328571,7.01790476 C12.3242857,7.01790476 12.3157143,7.01485714 12.3114286,7.00571429 C12.2728571,6.9432381 12.2514286,6.82438095 12.2514286,6.65752381 C12.2514286,6.63085714 12.3007143,6.63085714 12.3007143,6.65752381 C12.3007143,6.80990476 12.3185714,6.92266667 12.3521429,6.97904762 C12.3607143,6.9912381 12.355,7.00571429 12.345,7.01485714 C12.3392857,7.01790476 12.3364286,7.01790476 12.3328571,7.01790476" id="Fill-648" fill="#E9C233"></path>
                        <path d="M11.97,7.07428571 C11.9671429,7.07428571 11.9614286,7.07428571 11.9585714,7.0712381 C11.9464286,7.06285714 11.9435714,7.05066667 11.9492857,7.03542857 C12.0007143,6.93180952 12.0492857,6.8152381 12.0492857,6.65752381 C12.0492857,6.63085714 12.0985714,6.63085714 12.0985714,6.65752381 C12.0985714,6.82742857 12.0464286,6.94933333 11.9921429,7.05980952 C11.9878571,7.06819048 11.9792857,7.07428571 11.97,7.07428571" id="Fill-649" fill="#E9C233"></path>
                        <path d="M12.1457143,7.01790476 C12.1428571,7.01790476 12.1371429,7.01790476 12.1328571,7.01485714 C12.1221429,7.00571429 12.1192857,6.9912381 12.125,6.97904762 C12.1578571,6.92266667 12.1792857,6.80990476 12.1792857,6.65752381 C12.1792857,6.63085714 12.2264286,6.63085714 12.2264286,6.65752381 C12.2264286,6.82438095 12.2057143,6.9432381 12.1692857,7.00571429 C12.1635714,7.01485714 12.1542857,7.01790476 12.1457143,7.01790476" id="Fill-650" fill="#E9C233"></path>
                        <path d="M11.7578571,6.01752381 C11.7957143,6.02057143 11.8107143,6.03580952 11.8664286,6.06247619 C11.9,6.08304762 11.9792857,6.13409524 12.0007143,6.25295238 C11.9792857,6.19047619 12.0185714,6.13409524 12.0578571,6.15466667 C12.0007143,6.0152381 11.8307143,5.98247619 11.7578571,6.01752381" id="Fill-651" fill="#E9C233"></path>
                        <path d="M11.812,6.02594486 C11.833,6.02995489 11.853,6.03396491 11.882,6.05000501 L11.917,6.07306266 C11.958,6.09712281 12.036,6.14023058 12.083,6.23747369 C12.091,6.22644612 12.099,6.21040602 12.107,6.21040602 C12.12,6.1913584 12.138,6.18333835 12.157,6.18333835 C12.103,6.06905263 11.921,6.00689724 11.812,6.02594486 Z M12.099,6.34774938 C12.095,6.34774938 12.087,6.34373935 12.083,6.33972933 C12.083,6.33972933 12.083,6.33972933 12.083,6.3357193 C12.081,6.33170928 12.077,6.31266166 12.077,6.30464161 C12.044,6.18333835 11.946,6.1282005 11.903,6.10113283 L11.874,6.06905263 L11.862,6.08108271 C11.819,6.05802506 11.798,6.04198496 11.755,6.04198496 C11.777,5.99486717 11.812,5.99085714 11.853,5.99085714 C11.976,5.99085714 12.132,6.05401504 12.193,6.19837594 C12.196,6.20238597 12.183,6.20639599 12.179,6.21040602 C12.179,6.21040602 12.163,6.21040602 12.157,6.21040602 C12.112,6.24148371 12.107,6.26955389 12.111,6.29662156 C12.111,6.30063158 12.111,6.30464161 12.107,6.30865163 C12.112,6.31667168 12.112,6.32769925 12.116,6.33170928 C12.116,6.33972933 12.112,6.34774938 12.103,6.34774938 L12.099,6.34774938 L12.099,6.34774938 Z" id="Fill-652" fill="#E9C233"></path>
                        <polyline id="Fill-653" fill="#E9C233" points="12.3114286 8.63390476 12.5307143 9.70209524 12.4578571 9.78285714 12.3842857 9.72038095 12.26 8.76495238 12.3114286 9.72038095 12.2392857 9.82171429 12.1664286 9.72038095 12.2178571 8.76495238 12.0942857 9.72038095 12.0185714 9.78285714 11.9464286 9.70209524 12.1664286 8.63390476 12.3114286 8.63390476"></polyline>
                        <path d="M12.4347143,8.63695238 L12.2607143,8.65447619 L11.9817143,9.70819048 L12.0757143,9.76457143 L12.1417143,9.70209524 L12.3077143,8.76190476 L12.3627143,8.76495238 L12.4157143,8.76190476 L12.5947143,9.71733333 L12.6887143,9.76228571 L12.7527143,9.68457143 L12.4347143,8.63695238 Z M12.3627143,8.78247619 L12.2907143,9.72038095 L12.3627143,9.78590476 L12.4427143,9.70819048 L12.3627143,8.78247619 Z M12.3627143,9.85447619 L12.2397143,9.73485714 L12.2707143,9.27695238 L12.1887143,9.72342857 L12.0717143,9.79733333 L11.9307143,9.71733333 L12.2317143,8.62780952 L12.4637143,8.6072381 L12.7997143,9.6967619 L12.6927143,9.79733333 L12.5457143,9.73790476 L12.4567143,9.26780952 L12.4937143,9.72038095 L12.3627143,9.85447619 L12.3627143,9.85447619 Z" id="Fill-654" fill="#E9C233"></path>
                        <path d="M10.9414286,6.94933333 L10.8328571,9.70209524 L10.6457143,9.87809524 L10.76,7.05066667 C10.8121429,7.0087619 10.9028571,6.94933333 10.9414286,6.94933333" id="Fill-655" fill="#E9C233"></path>
                        <path d="M11.1607143,7.14895238 L11.0685714,9.44914286 L10.8842857,9.65180952 L10.9964286,6.9912381 C11.0321429,7.03009524 11.1414286,7.12761905 11.1607143,7.14895238" id="Fill-656" fill="#E9C233"></path>
                        <path d="M11.3614286,7.32419048 L11.2892857,9.24419048 L11.1414286,9.39885714 L11.2335714,7.20838095 C11.2678571,7.2472381 11.3407143,7.30361905 11.3614286,7.32419048" id="Fill-657" fill="#E9C233"></path>
                        <path d="M11.5792857,7.42247619 L11.5064286,9.0567619 L11.3614286,9.18171429 L11.4342857,7.36304762 C11.4721429,7.37828571 11.5442857,7.42247619 11.5792857,7.42247619" id="Fill-658" fill="#E9C233"></path>
                        <path d="M11.78,7.42247619 L11.7285714,8.78857143 L11.5792857,8.94019048 L11.635,7.4407619 C11.6714286,7.4407619 11.765,7.4407619 11.78,7.42247619" id="Fill-659" fill="#E9C233"></path>
                        <path d="M13.5364286,6.94933333 L13.6464286,9.70209524 L13.8307143,9.87809524 L13.7192857,7.05066667 C13.6678571,7.0087619 13.5742857,6.94933333 13.5364286,6.94933333" id="Fill-660" fill="#E9C233"></path>
                        <path d="M13.3164286,7.14895238 L13.4092857,9.44914286 L13.5935714,9.62514286 L13.4821429,6.9912381 C13.4457143,7.03009524 13.3371429,7.12761905 13.3164286,7.14895238" id="Fill-661" fill="#E9C233"></path>
                        <path d="M13.1164286,7.32419048 L13.1921429,9.24419048 L13.3371429,9.36609524 L13.2435714,7.20838095 C13.2071429,7.2472381 13.135,7.30361905 13.1164286,7.32419048" id="Fill-662" fill="#E9C233"></path>
                        <path d="M12.8992857,7.42247619 L12.9714286,9.02704762 L13.1164286,9.15504762 L13.0442857,7.36304762 C13.0078571,7.37828571 12.935,7.42247619 12.8992857,7.42247619" id="Fill-663" fill="#E9C233"></path>
                        <path d="M12.6964286,7.42247619 L12.7514286,8.78857143 L12.8992857,8.94019048 L12.8421429,7.4407619 C12.8057143,7.4407619 12.7121429,7.4407619 12.6964286,7.42247619" id="Fill-664" fill="#E9C233"></path>
                        <polyline id="Fill-665" fill="#FFFFFE" points="11.7435714 8.16380952 11.3057143 9.82171429 11.91 9.91695238 12.1664286 8.66971429 11.7435714 8.16380952"></polyline>
                        <path d="M11.3406237,9.79733333 L11.9555207,9.88952381 L12.2368202,8.66361905 L11.8065508,8.208 L11.3406237,9.79733333 Z M11.9785001,9.94057143 C11.9753305,9.94057143 11.9753305,9.94057143 11.9753305,9.94057143 L11.3065508,9.84228571 C11.2970421,9.8392381 11.2914954,9.83619048 11.286741,9.83009524 C11.2835714,9.8247619 11.2835714,9.82171429 11.2835714,9.81561905 L11.7708931,8.15466667 C11.7740627,8.1432381 11.7804019,8.13714286 11.7883258,8.13714286 C11.7970421,8.13714286 11.8065508,8.13714286 11.8144748,8.1432381 L12.2835714,8.65447619 L12.0046491,9.92228571 C11.9983099,9.93447619 11.9895936,9.94057143 11.9785001,9.94057143 L11.9785001,9.94057143 Z" id="Fill-666" fill="#E9C233"></path>
                        <polyline id="Fill-667" fill="#FFFFFE" points="12.7328571 8.16380952 13.1707143 9.82171429 12.5671429 9.91695238 12.3114286 8.66971429 12.7328571 8.16380952"></polyline>
                        <path d="M12.7681721,8.21104762 L12.3343138,8.68419048 L12.616991,9.88952381 L13.228802,9.79733333 L12.7681721,8.21104762 Z M12.5957312,9.94057143 C12.5847075,9.94057143 12.5768335,9.93447619 12.5736839,9.92228571 L12.2878571,8.6727619 L12.7618729,8.1432381 C12.7681721,8.13714286 12.7752587,8.13714286 12.7847075,8.13714286 C12.7925816,8.13714286 12.7988808,8.14552381 12.801243,8.15466667 L13.2878571,9.81561905 C13.2878571,9.82171429 13.2878571,9.8247619 13.2847075,9.83009524 C13.2784083,9.83619048 13.2721091,9.8392381 13.2642351,9.84228571 L12.6020304,9.94057143 C12.6020304,9.94057143 12.5988808,9.94057143 12.5957312,9.94057143 L12.5957312,9.94057143 Z" id="Fill-668" fill="#E9C233"></path>
                        <path d="M11.6528571,8.88685714 C11.6507143,8.88685714 11.6507143,8.88685714 11.6492857,8.88685714 C11.6407143,8.88685714 11.6321429,8.8807619 11.6292857,8.86933333 L11.5764286,8.7352381 C11.5735714,8.72 11.5764286,8.70857143 11.5892857,8.70247619 C11.6014286,8.69333333 11.6171429,8.70247619 11.6221429,8.71466667 L11.6614286,8.8152381 L11.8007143,8.65142857 C11.8092857,8.64 11.8221429,8.64 11.8314286,8.65142857 C11.8428571,8.66057143 11.8457143,8.6727619 11.8342857,8.68419048 L11.6685714,8.8807619 C11.6642857,8.88380952 11.6585714,8.88685714 11.6528571,8.88685714" id="Fill-669" fill="#E9C233"></path>
                        <path d="M11.8557143,9.00266667 C11.8557143,9.00266667 11.8528571,9.00266667 11.85,9.00266667 C11.84,9.00038095 11.8314286,8.99428571 11.8314286,8.98209524 L11.7742857,8.43733333 C11.7742857,8.42285714 11.7857143,8.40761905 11.7985714,8.40761905 C11.8107143,8.40457143 11.8221429,8.4167619 11.825,8.4312381 L11.8735714,8.91047619 L12.0185714,8.71161905 C12.0257143,8.69942857 12.0421429,8.69638095 12.0521429,8.70552381 C12.0621429,8.71161905 12.065,8.72914286 12.0578571,8.74133333 L11.8764286,8.99733333 C11.8707143,9.00038095 11.8664286,9.00266667 11.8557143,9.00266667" id="Fill-670" fill="#E9C233"></path>
                        <path d="M12.0728571,9.14285714 C12.065,9.14285714 12.055,9.13371429 12.0492857,9.12761905 L11.9435714,8.83047619 C11.9392857,8.82438095 11.9435714,8.80685714 11.9557143,8.8007619 C11.9671429,8.79466667 11.9821429,8.8007619 11.9878571,8.8152381 L12.0971429,9.104 C12.1007143,9.1192381 12.0971429,9.13371429 12.0828571,9.13980952 C12.0814286,9.14285714 12.0785714,9.14285714 12.0728571,9.14285714" id="Fill-671" fill="#E9C233"></path>
                        <path d="M11.91,9.3752381 C11.9071429,9.3752381 11.9042857,9.3752381 11.9028571,9.3752381 C11.8942857,9.37219048 11.8892857,9.36609524 11.8864286,9.36 L11.8107143,9.104 L11.7492857,9.22590476 C11.7435714,9.23504762 11.7342857,9.2472381 11.7285714,9.24114286 C11.7185714,9.24114286 11.7107143,9.232 11.705,9.22285714 L11.6435714,9.06285714 L11.5064286,9.19314286 C11.4985714,9.20533333 11.4828571,9.20533333 11.4721429,9.19314286 C11.465,9.18171429 11.465,9.16342857 11.4742857,9.15809524 L11.635,9.00038095 C11.6435714,8.99733333 11.6507143,8.99428571 11.6557143,8.99733333 C11.6642857,8.99733333 11.6714286,9.00266667 11.6742857,9.01180952 L11.7314286,9.15504762 L11.7957143,9.024 C11.8007143,9.01790476 11.8107143,9.01485714 11.8192857,9.01485714 C11.8307143,9.01485714 11.8371429,9.01790476 11.84,9.03009524 L11.92,9.30361905 L12.0421429,9.17257143 C12.0492857,9.16342857 12.065,9.16342857 12.0757143,9.17257143 C12.0828571,9.18171429 12.0828571,9.20228571 12.0757143,9.21142857 L11.925,9.36914286 C11.9221429,9.37219048 11.9157143,9.3752381 11.91,9.3752381" id="Fill-672" fill="#E9C233"></path>
                        <path d="M11.9671429,9.72952381 C11.9528571,9.72952381 11.9435714,9.72038095 11.9407143,9.70819048 L11.8942857,9.47047619 L11.7828571,9.62209524 C11.7771429,9.6312381 11.7707143,9.63428571 11.7592857,9.6312381 C11.7521429,9.6312381 11.7435714,9.62209524 11.7414286,9.61295238 L11.6821429,9.42247619 L11.5807143,9.55961905 C11.5764286,9.5687619 11.5707143,9.5687619 11.56,9.57180952 C11.5528571,9.5687619 11.5442857,9.56266667 11.54,9.55352381 L11.4285714,9.26171429 C11.4228571,9.25028571 11.4285714,9.23504762 11.4414286,9.22895238 C11.4535714,9.22057143 11.4678571,9.22895238 11.4721429,9.24419048 L11.5707143,9.49409524 L11.6742857,9.35085714 C11.6771429,9.34552381 11.6864286,9.34247619 11.695,9.34247619 C11.705,9.34552381 11.7128571,9.35085714 11.7157143,9.36 L11.7728571,9.55047619 L11.8892857,9.38971429 C11.8971429,9.38361905 11.9042857,9.37828571 11.9157143,9.38133333 C11.9221429,9.38361905 11.9307143,9.3927619 11.9335714,9.40190476 L11.9878571,9.6967619 C11.9921429,9.7112381 11.9821429,9.72342857 11.97,9.72952381 C11.9671429,9.72952381 11.9671429,9.72952381 11.9671429,9.72952381" id="Fill-673" fill="#E9C233"></path>
                        <path d="M11.8164286,9.94361905 C11.8135714,9.94361905 11.8107143,9.94057143 11.8107143,9.94057143 C11.8035714,9.94057143 11.7957143,9.93447619 11.7957143,9.92533333 L11.7371429,9.744 L11.6557143,9.89257143 C11.6528571,9.90171429 11.6435714,9.90780952 11.6321429,9.90171429 C11.625,9.90171429 11.6171429,9.89866667 11.6128571,9.8872381 L11.5371429,9.67238095 L11.4535714,9.79733333 C11.4464286,9.80952381 11.4314286,9.80952381 11.42,9.80342857 C11.4107143,9.792 11.4078571,9.77980952 11.4142857,9.76457143 L11.5235714,9.60685714 C11.5292857,9.59847619 11.54,9.59542857 11.5471429,9.59542857 C11.5557143,9.59542857 11.5628571,9.60380952 11.565,9.61295238 L11.6407143,9.82171429 L11.7228571,9.66933333 C11.7285714,9.66095238 11.7371429,9.65790476 11.7464286,9.65790476 C11.7578571,9.65790476 11.765,9.66704762 11.7678571,9.67238095 L11.8307143,9.872 L11.9128571,9.79733333 C11.9221429,9.78895238 11.9407143,9.792 11.9492857,9.80342857 C11.9557143,9.81561905 11.9557143,9.83009524 11.9464286,9.83619048 L11.8314286,9.93752381 C11.8278571,9.94057143 11.8221429,9.94361905 11.8164286,9.94361905" id="Fill-674" fill="#E9C233"></path>
                        <path d="M12.8264286,8.88685714 C12.8178571,8.88685714 12.8114286,8.88380952 12.8085714,8.8807619 L12.6421429,8.68419048 C12.635,8.6727619 12.635,8.66057143 12.645,8.65142857 C12.6535714,8.64 12.6714286,8.64 12.6785714,8.65142857 L12.8178571,8.8152381 L12.8542857,8.71466667 C12.86,8.70247619 12.875,8.69333333 12.8892857,8.70247619 C12.8992857,8.70857143 12.9071429,8.72 12.9021429,8.7352381 L12.8471429,8.86933333 C12.8442857,8.8807619 12.8378571,8.88685714 12.8292857,8.88685714 C12.8292857,8.88685714 12.8292857,8.88685714 12.8264286,8.88685714" id="Fill-675" fill="#E9C233"></path>
                        <path d="M12.6242857,9.00266667 C12.6171429,9.00266667 12.6085714,9.00038095 12.6035714,8.99733333 L12.4207143,8.74133333 C12.4121429,8.72914286 12.415,8.71161905 12.425,8.70552381 C12.4357143,8.69638095 12.4514286,8.69638095 12.4578571,8.71161905 L12.6057143,8.91047619 L12.6535714,8.4312381 C12.6535714,8.4167619 12.6657143,8.40457143 12.6785714,8.40761905 C12.6928571,8.40761905 12.7021429,8.42285714 12.6992857,8.43733333 L12.6507143,8.98209524 C12.6478571,8.9912381 12.6392857,9.00038095 12.6328571,9.00266667 C12.63,9.00266667 12.6271429,9.00266667 12.6242857,9.00266667" id="Fill-676" fill="#E9C233"></path>
                        <path d="M12.405,9.14285714 C12.4021429,9.14285714 12.3964286,9.14285714 12.3942857,9.13980952 C12.3814286,9.13371429 12.3757143,9.1192381 12.3814286,9.104 L12.49,8.8152381 C12.4942857,8.8007619 12.5085714,8.79466667 12.5207143,8.8007619 C12.5335714,8.80685714 12.5392857,8.82438095 12.5335714,8.83047619 L12.4271429,9.12761905 C12.4221429,9.13371429 12.415,9.14285714 12.405,9.14285714" id="Fill-677" fill="#E9C233"></path>
                        <path d="M12.5671429,9.3752381 C12.5628571,9.3752381 12.5542857,9.37219048 12.5514286,9.36914286 L12.4064286,9.21142857 C12.3964286,9.1992381 12.3964286,9.18171429 12.4064286,9.17257143 C12.415,9.16342857 12.43,9.16342857 12.4414286,9.17257143 L12.5542857,9.30057143 L12.6171429,9.03009524 C12.62,9.02095238 12.6271429,9.01485714 12.6364286,9.01485714 C12.6478571,9.01180952 12.6564286,9.01485714 12.6607143,9.024 L12.7457143,9.16038095 L12.8028571,9.01180952 C12.8057143,9.00266667 12.8135714,8.99733333 12.8178571,8.99733333 C12.8292857,8.99428571 12.835,8.99733333 12.8421429,9.00038095 L13.005,9.15809524 C13.0164286,9.16342857 13.0192857,9.17866667 13.0078571,9.19314286 C12.9992857,9.20533333 12.9842857,9.20533333 12.9742857,9.19314286 L12.835,9.06285714 L12.7721429,9.22285714 C12.7692857,9.232 12.7621429,9.24114286 12.7514286,9.24114286 C12.7442857,9.24114286 12.7357143,9.23809524 12.73,9.22895238 L12.6535714,9.10095238 L12.5935714,9.35695238 C12.5907143,9.36609524 12.5864286,9.37219048 12.575,9.3752381 C12.5728571,9.3752381 12.5728571,9.3752381 12.5671429,9.3752381" id="Fill-678" fill="#E9C233"></path>
                        <path d="M12.5142857,9.72952381 C12.5114286,9.72952381 12.5114286,9.72952381 12.5085714,9.72952381 C12.4942857,9.72342857 12.4871429,9.7112381 12.49,9.6967619 L12.545,9.40190476 C12.5471429,9.3927619 12.5514286,9.38361905 12.5628571,9.38133333 C12.5728571,9.37828571 12.5835714,9.38361905 12.5878571,9.3927619 L12.705,9.55047619 L12.7621429,9.36 C12.765,9.35085714 12.7721429,9.34552381 12.7821429,9.34247619 C12.79,9.34247619 12.8014286,9.34552381 12.8057143,9.35085714 L12.9071429,9.49409524 L13.0021429,9.24419048 C13.0078571,9.22895238 13.0228571,9.22057143 13.0357143,9.22895238 C13.05,9.23504762 13.055,9.25028571 13.05,9.26171429 L12.9378571,9.55352381 C12.935,9.56266667 12.9271429,9.5687619 12.92,9.57180952 C12.91,9.57180952 12.9021429,9.5687619 12.8964286,9.55961905 L12.7957143,9.42247619 L12.7357143,9.61295238 C12.7328571,9.62209524 12.7257143,9.6312381 12.7178571,9.6312381 C12.7092857,9.63428571 12.6992857,9.6312381 12.695,9.62209524 L12.5835714,9.47047619 L12.5364286,9.70819048 C12.5335714,9.72038095 12.5235714,9.72952381 12.5142857,9.72952381" id="Fill-679" fill="#E9C233"></path>
                        <path d="M12.6607143,9.94361905 C12.6564286,9.94361905 12.6507143,9.94057143 12.645,9.93752381 L12.5335714,9.83619048 C12.5207143,9.83009524 12.5207143,9.81561905 12.5292857,9.80342857 C12.5392857,9.792 12.5542857,9.78895238 12.5657143,9.79733333 L12.6507143,9.872 L12.7092857,9.67238095 C12.7121429,9.66704762 12.7207143,9.65790476 12.73,9.65790476 C12.7385714,9.65790476 12.7514286,9.66095238 12.7535714,9.66933333 L12.8378571,9.82171429 L12.9114286,9.61295238 C12.9142857,9.60380952 12.9228571,9.59542857 12.93,9.59542857 C12.9378571,9.59542857 12.9478571,9.59847619 12.9535714,9.60685714 L13.0621429,9.76457143 C13.0692857,9.77980952 13.0678571,9.792 13.0564286,9.80342857 C13.0471429,9.80952381 13.0314286,9.80952381 13.0228571,9.79733333 L12.9407143,9.67238095 L12.8657143,9.8872381 C12.8628571,9.89866667 12.8542857,9.90171429 12.8442857,9.90171429 C12.835,9.90780952 12.8264286,9.90171429 12.8207143,9.89257143 L12.7414286,9.74704762 L12.6842857,9.92533333 C12.6814286,9.93447619 12.6728571,9.94057143 12.6685714,9.94057143 C12.6657143,9.94057143 12.6635714,9.94361905 12.6607143,9.94361905" id="Fill-680" fill="#E9C233"></path>
                        <path d="M12.2392857,7.20838095 C12.4221429,7.36304762 12.6607143,7.4407619 12.935,7.42247619 C12.9142857,8.10438095 12.7328571,8.57142857 12.2392857,8.92266667 C11.7435714,8.57142857 11.5628571,8.10438095 11.5442857,7.42247619 C11.8164286,7.4407619 12.0578571,7.36304762 12.2392857,7.20838095" id="Fill-681" fill="#FFFFFE"></path>
                        <path d="M11.5428571,7.4407619 C11.5807143,8.13104762 11.7857143,8.57142857 12.2392857,8.90209524 C12.695,8.57142857 12.8992857,8.13104762 12.9171429,7.42247619 C12.91,7.44380952 12.8835714,7.44380952 12.86,7.44380952 C12.62,7.44380952 12.4021429,7.36609524 12.2278571,7.22057143 C12.0814286,7.36609524 11.8635714,7.44380952 11.62,7.44380952 C11.5928571,7.44380952 11.5678571,7.44380952 11.5428571,7.4407619 Z M12.2392857,8.9432381 C12.2364286,8.9432381 12.2307143,8.94019048 12.2278571,8.94019048 C11.7578571,8.60114286 11.5471429,8.14857143 11.5264286,7.42247619 C11.5707143,7.40495238 11.5928571,7.40495238 11.62,7.408 C11.8557143,7.408 12.065,7.33028571 12.2278571,7.19085714 C12.4357143,7.34552381 12.6657143,7.42247619 12.9321429,7.40495238 C12.93,8.14857143 12.7207143,8.60114286 12.2485714,8.94019048 C12.2435714,8.94019048 12.2407143,8.9432381 12.2392857,8.9432381 L12.2392857,8.9432381 Z" id="Fill-682" fill="#E9C233"></path>
                        <path d="M12.2392857,8.84190476 C12.6242857,8.57142857 12.8421429,8.10438095 12.8628571,7.47885714 C12.6242857,7.47885714 12.3842857,7.42247619 12.2392857,7.28609524 C12.0728571,7.42247619 11.8557143,7.47885714 11.5985714,7.47885714 C11.635,8.10438095 11.8557143,8.57142857 12.2392857,8.84190476" id="Fill-683" fill="#E9C233"></path>
                        <path d="M11.6221429,7.50019048 C11.6642857,8.0952381 11.8764286,8.54780952 12.2392857,8.81828571 C12.6057143,8.54780952 12.8164286,8.0952381 12.8378571,7.50019048 C12.6785714,7.49714286 12.415,7.47047619 12.2392857,7.31809524 C12.0828571,7.43771429 11.8835714,7.49714286 11.6221429,7.50019048 Z M12.2392857,8.86933333 C12.2335714,8.86933333 12.2278571,8.86628571 12.2264286,8.86628571 C11.8371429,8.58666667 11.6128571,8.10742857 11.5764286,7.48190476 C11.5764286,7.47352381 11.5792857,7.46742857 11.5835714,7.46133333 C11.5864286,7.4552381 11.5921429,7.45219048 11.5985714,7.45219048 C11.8678571,7.45219048 12.0728571,7.38971429 12.2235714,7.2647619 C12.2335714,7.25866667 12.2435714,7.25866667 12.2542857,7.26780952 C12.3814286,7.38361905 12.6007143,7.45219048 12.8628571,7.45219048 C12.8685714,7.45219048 12.875,7.4552381 12.8778571,7.46133333 C12.8835714,7.46742857 12.8864286,7.47352381 12.8864286,7.48190476 C12.8657143,8.10438095 12.645,8.58666667 12.2514286,8.86628571 C12.2485714,8.86628571 12.2435714,8.86933333 12.2392857,8.86933333 L12.2392857,8.86933333 Z" id="Fill-684" fill="#E9C233"></path>
                        <path d="M11.6171429,9.82171429 C11.765,9.8392381 11.9278571,9.85752381 12.0578571,9.8392381 C12.13,9.8392381 12.1821429,9.97333333 12.0392857,9.99695238 C11.91,10.0121905 11.7078571,9.99695238 11.5985714,9.97333333 C11.5064286,9.95504762 11.3057143,9.91695238 11.1771429,9.87809524 C11.0507143,9.82171429 11.1414286,9.70209524 11.2135714,9.72038095 C11.3264286,9.7592381 11.4721429,9.79733333 11.6171429,9.82171429" id="Fill-685" fill="#FFFFFE"></path>
                        <path d="M11.2057143,9.76485213 C11.1721429,9.76485213 11.1442857,9.7919198 11.1385714,9.824 C11.13,9.86710777 11.1664286,9.89016542 11.1871429,9.90620552 C11.3142857,9.95633083 11.5164286,10.0074587 11.6042857,10.0275088 C11.7021429,10.0585865 11.9042857,10.0776341 12.0342857,10.0585865 C12.0814286,10.0505664 12.1064286,10.0194887 12.1035714,9.98440101 C12.1035714,9.95633083 12.0828571,9.91723309 12.0578571,9.91723309 C11.9278571,9.94530326 11.7314286,9.91723309 11.6128571,9.89016542 C11.4342857,9.86309775 11.2807143,9.79592983 11.2057143,9.76485213 Z M11.9128571,10.1327719 C11.7957143,10.1327719 11.6685714,10.1177343 11.5957143,10.0976842 C11.5064286,10.0746266 11.3014286,10.0194887 11.1721429,9.96836091 C11.0842857,9.91723309 11.0864286,9.84304762 11.0907143,9.81196993 C11.1021429,9.74480201 11.1478571,9.69066667 11.1971429,9.69066667 C11.2957143,9.72976441 11.4435714,9.7919198 11.62,9.824 C11.7342857,9.84705765 11.92,9.87412532 12.055,9.8550777 C12.1064286,9.8550777 12.1514286,9.91322306 12.1542857,9.98039098 C12.1557143,10.0385363 12.1278571,10.1057043 12.0421429,10.1207419 C12.0035714,10.1287619 11.9585714,10.1327719 11.9128571,10.1327719 L11.9128571,10.1327719 Z" id="Fill-686" fill="#E9C233"></path>
                        <path d="M12.8628571,9.82171429 C12.7121429,9.8392381 12.55,9.85752381 12.4221429,9.8392381 C12.3478571,9.8392381 12.2964286,9.97333333 12.4385714,9.99695238 C12.5671429,10.0121905 12.7692857,9.99695238 12.8778571,9.97333333 C12.9714286,9.95504762 13.1707143,9.91695238 13.3007143,9.87809524 C13.4292857,9.82171429 13.3371429,9.70209524 13.2642857,9.72038095 C13.1528571,9.7592381 13.0078571,9.79733333 12.8628571,9.82171429" id="Fill-687" fill="#FFFFFE"></path>
                        <path d="M12.4207143,9.91592099 C12.3964286,9.91592099 12.3728571,9.95501873 12.37,9.98308891 C12.37,10.0181766 12.3964286,10.0492543 12.4428571,10.0572744 C12.5728571,10.076322 12.775,10.0572744 12.875,10.0261967 C12.9614286,10.0061466 13.1657143,9.95501873 13.295,9.90489342 C13.3107143,9.88885332 13.3442857,9.86579567 13.34,9.8226879 C13.3342857,9.7906077 13.3064286,9.76354003 13.28,9.76354003 C13.1978571,9.79461773 13.0414286,9.86178565 12.8657143,9.88885332 C12.7385714,9.91592099 12.5542857,9.94399116 12.4207143,9.91592099 Z M12.5657143,10.1314598 C12.5178571,10.1314598 12.475,10.1274498 12.4385714,10.1194298 C12.3492857,10.1043922 12.3214286,10.0372242 12.3242857,9.97907888 C12.3271429,9.91191096 12.3728571,9.8537656 12.4221429,9.8537656 C12.5657143,9.87281322 12.7442857,9.84574555 12.8571429,9.8226879 C13.0314286,9.7906077 13.1807143,9.72845231 13.2564286,9.69737462 C13.3257143,9.68133452 13.3785714,9.74348991 13.3857143,9.81065783 C13.3914286,9.84173552 13.3928571,9.91592099 13.3107143,9.96704881 C13.1764286,10.0181766 12.9714286,10.0733145 12.8835714,10.0963721 C12.8085714,10.1164222 12.6814286,10.1314598 12.5657143,10.1314598 L12.5657143,10.1314598 Z" id="Fill-688" fill="#E9C233"></path>
                        <path d="M11.1607143,9.744 C11.0507143,9.72038095 10.9964286,9.85752381 11.0321429,9.93752381 C11.0507143,9.89561905 11.1257143,9.89561905 11.1414286,9.85752381 C11.1607143,9.79733333 11.1257143,9.79733333 11.1607143,9.744" id="Fill-689" fill="#FFFFFE"></path>
                        <path d="M11.1693217,9.78943358 C11.1223217,9.80146366 11.1013217,9.8245213 11.0893217,9.84858146 C11.0723217,9.8716391 11.0643217,9.91073684 11.0643217,9.94281705 C11.0783217,9.934797 11.0973217,9.92677695 11.1113217,9.92276692 C11.1363217,9.91073684 11.1623217,9.9037193 11.1653217,9.8876792 C11.1773217,9.86361905 11.1733217,9.85660151 11.1693217,9.84056141 C11.1693217,9.82051128 11.1653217,9.80948371 11.1693217,9.78943358 Z M11.0463217,10.0400602 C11.0353217,10.0400602 11.0253217,10.0320401 11.0173217,10.0210125 C10.9843217,9.96186466 10.9923217,9.8716391 11.0313217,9.80948371 C11.0683217,9.75033584 11.1283217,9.7112381 11.1953217,9.7112381 C11.2063217,9.71524812 11.2343217,9.72326817 11.2383217,9.73830576 C11.2463217,9.74632581 11.2593217,9.76236592 11.2573217,9.77038597 C11.2343217,9.80146366 11.2383217,9.80948371 11.2383217,9.8245213 C11.2423217,9.84858146 11.2463217,9.86762907 11.2303217,9.91073684 C11.2123217,9.95785464 11.1693217,9.96988472 11.1363217,9.98592482 C11.1113217,9.99695238 11.0813217,10.0089825 11.0783217,10.0210125 C11.0723217,10.0320401 11.0643217,10.0440702 11.0463217,10.0400602 L11.0463217,10.0400602 Z" id="Fill-690" fill="#E9C233"></path>
                        <path d="M11.5985714,10.1013333 C11.5985714,10.0205714 11.6714286,10.0327619 11.6714286,9.95504762 C11.6714286,9.91695238 11.6528571,9.85752381 11.6171429,9.85752381 C11.5792857,9.85752381 11.5442857,9.89561905 11.5442857,9.93752381 C11.5264286,10.0121905 11.5985714,10.0205714 11.5985714,10.1013333" id="Fill-691" fill="#FFFFFE"></path>
                        <path d="M11.6574641,9.90127318 C11.6224641,9.90127318 11.5884641,9.9363609 11.5884641,9.97144862 C11.5814641,10.0185664 11.5964641,10.033604 11.6144641,10.0616742 C11.6224641,10.0696942 11.6274641,10.0767118 11.6354641,10.0887419 C11.6434641,10.0767118 11.6554641,10.0737043 11.6614641,10.0656842 C11.6864641,10.0456341 11.7024641,10.033604 11.7024641,9.99450627 C11.7024641,9.9513985 11.6744641,9.90127318 11.6574641,9.90127318 Z M11.6314641,10.2220752 C11.6144641,10.2220752 11.6004641,10.2060351 11.6004641,10.1869875 C11.6004641,10.1518998 11.5814641,10.1278396 11.5634641,10.104782 C11.5384641,10.0696942 11.5044641,10.0305965 11.5204641,9.95941855 C11.5204641,9.89726316 11.5844641,9.83009524 11.6574641,9.83009524 C11.7334641,9.83009524 11.7704641,9.92834085 11.7704641,9.99450627 C11.7704641,10.0616742 11.7334641,10.0927519 11.7074641,10.116812 C11.6824641,10.1358597 11.6684641,10.1518998 11.6684641,10.1869875 C11.6684641,10.2060351 11.6514641,10.2220752 11.6314641,10.2220752 L11.6314641,10.2220752 Z" id="Fill-692" fill="#E9C233"></path>
                        <path d="M12.1221429,9.87809524 C12.2278571,9.87809524 12.2178571,10.0327619 12.1664286,10.1104762 C12.1664286,10.056381 12.0728571,10.0327619 12.0728571,9.99695238 C12.0728571,9.93752381 12.1557143,9.93752381 12.1221429,9.87809524" id="Fill-693" fill="#FFFFFE"></path>
                        <path d="M12.1962857,9.92962406 C12.1922857,9.96471178 12.1662857,9.98075188 12.1512857,9.99578948 C12.1292857,10.0118296 12.1182857,10.0238597 12.1182857,10.0429073 C12.1212857,10.0469173 12.1452857,10.0629574 12.1592857,10.0699749 C12.1762857,10.082005 12.1982857,10.0980451 12.2172857,10.1170927 C12.2352857,10.0629574 12.2392857,9.9997995 12.2192857,9.96070176 C12.2172857,9.94867168 12.2052857,9.93764411 12.1962857,9.92962406 Z M12.2132857,10.2273684 C12.2092857,10.2273684 12.2052857,10.2273684 12.2012857,10.2233584 C12.1882857,10.2233584 12.1802857,10.2073183 12.1802857,10.1922807 C12.1802857,10.1722306 12.1472857,10.1521805 12.1182857,10.1291228 C12.0862857,10.1060652 12.0492857,10.077995 12.0492857,10.0429073 C12.0492857,9.98776943 12.0822857,9.96070176 12.1082857,9.94165414 C12.1002857,9.92962406 12.1082857,9.89854637 12.1122857,9.88651629 C12.1182857,9.87448622 12.1372857,9.85142857 12.1512857,9.85142857 C12.2092857,9.85142857 12.2562857,9.87849624 12.2822857,9.92962406 C12.3212857,10.0158396 12.2932857,10.1371429 12.2432857,10.2153384 C12.2352857,10.2233584 12.2232857,10.2273684 12.2132857,10.2273684 L12.2132857,10.2273684 Z" id="Fill-694" fill="#E9C233"></path>
                        <path d="M13.3164286,9.744 C13.4292857,9.72038095 13.4821429,9.85752381 13.4457143,9.93752381 C13.4292857,9.89561905 13.3521429,9.89561905 13.3371429,9.85752381 C13.3164286,9.79733333 13.3521429,9.79733333 13.3164286,9.744" id="Fill-695" fill="#FFFFFE"></path>
                        <path d="M13.3817507,9.78452887 C13.3857507,9.80457899 13.3817507,9.81961659 13.3817507,9.83966671 C13.3797507,9.85570681 13.3757507,9.86272436 13.3857507,9.89079453 C13.3897507,9.90282461 13.4187507,9.90984215 13.4447507,9.92187223 C13.4597507,9.92588225 13.4737507,9.9339023 13.4877507,9.94192235 C13.4917507,9.90984215 13.4817507,9.87074441 13.4637507,9.84768676 C13.4527507,9.82362661 13.4227507,9.79254892 13.3817507,9.78452887 Z M13.5067507,10.0391655 C13.4917507,10.0391655 13.4817507,10.0311454 13.4737507,10.0201178 C13.4697507,10.0080878 13.4407507,9.99605769 13.4147507,9.98503012 C13.3817507,9.96899002 13.3387507,9.95695995 13.3217507,9.91385218 C13.3077507,9.86673438 13.3117507,9.84768676 13.3137507,9.82362661 C13.3177507,9.80858902 13.3177507,9.80056897 13.2997507,9.76949127 C13.2917507,9.76147122 13.2917507,9.74944115 13.2957507,9.73741107 C13.2997507,9.7263835 13.3077507,9.71836345 13.3177507,9.71435343 C13.4307507,9.7103434 13.4837507,9.74944115 13.5207507,9.80858902 C13.5617507,9.87074441 13.5677507,9.96096997 13.5347507,10.0201178 C13.5327507,10.0311454 13.5207507,10.0391655 13.5067507,10.0391655 L13.5067507,10.0391655 Z" id="Fill-696" fill="#E9C233"></path>
                        <path d="M12.8778571,10.1013333 C12.8778571,10.0205714 12.8057143,10.0327619 12.8057143,9.95504762 C12.8057143,9.91695238 12.8264286,9.85752381 12.8628571,9.85752381 C12.8992857,9.85752381 12.935,9.89561905 12.935,9.93752381 C12.9507143,10.0121905 12.8778571,10.0205714 12.8778571,10.1013333" id="Fill-697" fill="#FFFFFE"></path>
                        <path d="M12.8951429,9.90127318 C12.8731429,9.90127318 12.8481429,9.9513985 12.8481429,9.99450627 C12.8481429,10.033604 12.8661429,10.0456341 12.8871429,10.0656842 C12.8951429,10.0737043 12.9071429,10.0767118 12.9121429,10.0887419 C12.9201429,10.0767118 12.9281429,10.0696942 12.9341429,10.0616742 C12.9571429,10.033604 12.9711429,10.0185664 12.9611429,9.97545865 C12.9611429,9.9363609 12.9241429,9.90127318 12.8951429,9.90127318 Z M12.9161429,10.2220752 C12.8991429,10.2220752 12.8831429,10.2060351 12.8831429,10.1869875 C12.8831429,10.1518998 12.8661429,10.1358597 12.8441429,10.116812 C12.8191429,10.0927519 12.7821429,10.0616742 12.7821429,9.99450627 C12.7821429,9.92834085 12.8191429,9.83009524 12.8951429,9.83009524 C12.9631429,9.83009524 13.0331429,9.89726316 13.0331429,9.97144862 C13.0431429,10.0305965 13.0141429,10.0696942 12.9851429,10.104782 C12.9671429,10.1278396 12.9531429,10.1518998 12.9531429,10.1869875 C12.9531429,10.2060351 12.9341429,10.2220752 12.9161429,10.2220752 L12.9161429,10.2220752 Z" id="Fill-698" fill="#E9C233"></path>
                        <path d="M12.3578571,9.87809524 C12.2485714,9.87809524 12.26,10.0327619 12.3114286,10.1104762 C12.3114286,10.056381 12.405,10.0327619 12.405,9.99695238 C12.405,9.93752381 12.3214286,9.93752381 12.3578571,9.87809524" id="Fill-699" fill="#FFFFFE"></path>
                        <path d="M12.354921,9.92962406 C12.342921,9.93764411 12.336921,9.94867168 12.329921,9.96070176 C12.307921,9.9997995 12.315921,10.0629574 12.336921,10.1170927 C12.350921,10.0980451 12.371921,10.082005 12.389921,10.0699749 C12.405921,10.0629574 12.426921,10.0469173 12.430921,10.0429073 C12.430921,10.0238597 12.418921,10.0118296 12.397921,9.99578948 C12.383921,9.98075188 12.358921,9.96471178 12.354921,9.92962406 Z M12.336921,10.2273684 C12.325921,10.2273684 12.315921,10.2233584 12.307921,10.2153384 C12.256921,10.1371429 12.223921,10.0158396 12.268921,9.92962406 C12.291921,9.87849624 12.338921,9.85142857 12.401921,9.85142857 C12.413921,9.85142857 12.422921,9.85944862 12.430921,9.86646617 C12.434921,9.88250627 12.434921,9.89453634 12.426921,9.90556391 C12.467921,9.96070176 12.498921,9.98776943 12.498921,10.0429073 C12.498921,10.077995 12.463921,10.1060652 12.430921,10.1291228 C12.401921,10.1521805 12.371921,10.1722306 12.371921,10.1922807 C12.371921,10.2073183 12.362921,10.2233584 12.346921,10.2233584 C12.342921,10.2273684 12.338921,10.2273684 12.336921,10.2273684 L12.336921,10.2273684 Z" id="Fill-700" fill="#E9C233"></path>
                        <path d="M11.1971429,9.78285714 C11.2335714,9.78285714 11.2892857,9.79733333 11.3057143,9.82171429 L11.1971429,9.78285714" id="Fill-701" fill="#FFFFFE"></path>
                        <path d="M11.3057143,9.83619048 C11.3042857,9.83619048 11.3014286,9.83619048 11.3014286,9.83314286 L11.1928571,9.79733333 C11.1842857,9.79428571 11.18,9.78590476 11.1828571,9.77980952 C11.1828571,9.76761905 11.19,9.76228571 11.1971429,9.76228571 C11.2335714,9.76228571 11.2957143,9.77980952 11.32,9.80952381 C11.325,9.81561905 11.325,9.8247619 11.32,9.83009524 C11.3171429,9.83314286 11.3114286,9.83619048 11.3057143,9.83619048" id="Fill-702" fill="#E9C233"></path>
                        <path d="M11.3785714,9.8392381 C11.3992857,9.8392381 11.4721429,9.85752381 11.5064286,9.87809524 L11.3785714,9.8392381" id="Fill-703" fill="#FFFFFE"></path>
                        <path d="M11.5064286,9.89866667 C11.5064286,9.89866667 11.5035714,9.89866667 11.5035714,9.89561905 L11.3742857,9.85752381 C11.3657143,9.85447619 11.3614286,9.84533333 11.3614286,9.83619048 C11.3657143,9.80647619 11.465,9.83009524 11.5164286,9.86285714 C11.5235714,9.86590476 11.5264286,9.87504762 11.5235714,9.88419048 C11.5192857,9.89257143 11.5135714,9.89866667 11.5064286,9.89866667" id="Fill-704" fill="#E9C233"></path>
                        <path d="M12.0392857,9.91695238 C12.0007143,9.91695238 11.9278571,9.91695238 11.91,9.93752381 L12.0392857,9.91695238" id="Fill-705" fill="#FFFFFE"></path>
                        <path d="M11.91,9.9527619 C11.9028571,9.9527619 11.8971429,9.94666667 11.8914286,9.94057143 C11.8892857,9.93752381 11.8914286,9.92838095 11.8971429,9.92228571 C11.9171429,9.90171429 11.9671429,9.90171429 12.0392857,9.90171429 C12.0464286,9.90171429 12.055,9.9047619 12.055,9.91390476 C12.055,9.92533333 12.0464286,9.93447619 12.0421429,9.93752381 L11.9128571,9.9527619 L11.91,9.9527619" id="Fill-706" fill="#E9C233"></path>
                        <path d="M11.8371429,9.91695238 C11.8164286,9.89561905 11.7435714,9.89561905 11.7078571,9.91695238 L11.8371429,9.91695238" id="Fill-707" fill="#FFFFFE"></path>
                        <path d="M11.8371429,9.93752381 L11.7078571,9.93752381 C11.7007143,9.93752381 11.695,9.93142857 11.6921429,9.92228571 C11.6892857,9.91390476 11.6921429,9.9047619 11.7007143,9.90171429 C11.7342857,9.88419048 11.8064286,9.85752381 11.85,9.90171429 C11.8528571,9.90780952 11.8557143,9.91695238 11.8528571,9.92533333 C11.85,9.93142857 11.8428571,9.93752381 11.8371429,9.93752381" id="Fill-708" fill="#E9C233"></path>
                        <path d="M13.28,9.78285714 C13.2435714,9.78285714 13.1921429,9.79733333 13.1707143,9.82171429 L13.28,9.78285714" id="Fill-709" fill="#FFFFFE"></path>
                        <path d="M13.1707143,9.83619048 C13.1657143,9.83619048 13.1614286,9.83009524 13.1585714,9.82704762 C13.1528571,9.8247619 13.1528571,9.81257143 13.1614286,9.80647619 C13.1835714,9.78285714 13.2435714,9.76228571 13.28,9.76228571 C13.2892857,9.76228571 13.2978571,9.76761905 13.2978571,9.77980952 C13.2978571,9.78590476 13.295,9.79428571 13.2871429,9.79733333 L13.1764286,9.83314286 C13.1764286,9.83619048 13.1735714,9.83619048 13.1707143,9.83619048" id="Fill-710" fill="#E9C233"></path>
                        <path d="M13.0985714,9.8392381 C13.0778571,9.8392381 13.0078571,9.85752381 12.9714286,9.87809524 L13.0985714,9.8392381" id="Fill-711" fill="#FFFFFE"></path>
                        <path d="M12.9714286,9.89866667 C12.9628571,9.89866667 12.9592857,9.89257143 12.9564286,9.88419048 C12.9507143,9.87504762 12.9564286,9.86285714 12.9628571,9.86285714 C13.0192857,9.83009524 13.1107143,9.80647619 13.1164286,9.83619048 C13.1192857,9.84533333 13.1135714,9.85447619 13.1042857,9.85752381 L12.9771429,9.89561905 C12.9742857,9.89866667 12.9742857,9.89866667 12.9714286,9.89866667" id="Fill-712" fill="#E9C233"></path>
                        <path d="M12.4385714,9.91695238 C12.4778571,9.91695238 12.55,9.91695238 12.5671429,9.93752381 L12.4385714,9.91695238" id="Fill-713" fill="#FFFFFE"></path>
                        <path d="M12.5671429,9.9527619 L12.5671429,9.9527619 L12.4385714,9.93752381 C12.4271429,9.93447619 12.4221429,9.92533333 12.4221429,9.91390476 C12.4221429,9.9047619 12.43,9.90171429 12.4385714,9.90171429 C12.5142857,9.90171429 12.56,9.90171429 12.5807143,9.92228571 C12.5864286,9.92838095 12.5878571,9.93752381 12.5864286,9.94057143 C12.5835714,9.94666667 12.575,9.9527619 12.5671429,9.9527619" id="Fill-714" fill="#E9C233"></path>
                        <path d="M12.6392857,9.91695238 C12.6607143,9.89561905 12.7328571,9.89561905 12.7692857,9.91695238 L12.6392857,9.91695238" id="Fill-715" fill="#FFFFFE"></path>
                        <path d="M12.7692857,9.93752381 L12.6392857,9.93752381 C12.635,9.93752381 12.6271429,9.93142857 12.6242857,9.92533333 C12.6228571,9.91695238 12.6242857,9.90780952 12.63,9.90171429 C12.6728571,9.85752381 12.7457143,9.88419048 12.7778571,9.90171429 C12.7842857,9.9047619 12.7871429,9.91390476 12.7842857,9.92228571 C12.7842857,9.93142857 12.7778571,9.93752381 12.7692857,9.93752381" id="Fill-716" fill="#E9C233"></path>
                        <path d="M12.4942857,6.07466667 C12.4578571,5.97942857 12.3942857,5.89866667 12.3035714,5.87809524 C12.26,5.86895238 12.2128571,5.86895238 12.1578571,5.86895238 C12.1035714,5.85447619 12.0578571,5.91695238 12.0392857,5.95504762 C12.0942857,5.99695238 12.1064286,6.03885714 12.1342857,6.05333333 C12.1914286,6.07466667 12.2178571,6.05333333 12.2757143,5.99695238 C12.3328571,5.94057143 12.4578571,5.95504762 12.4942857,6.07466667" id="Fill-717" fill="#E9C233"></path>
                        <path d="M12.2034286,5.88956391 C12.1284286,5.88956391 12.0824286,5.94369925 12.0524286,5.99482707 C12.0934286,6.00685714 12.1194286,6.03392481 12.1364286,6.05798496 C12.1544286,6.07703258 12.1664286,6.09307268 12.1834286,6.10109273 C12.2504286,6.12415038 12.2774286,6.10911279 12.3614286,6.02991479 C12.4194286,5.97577945 12.5314286,5.97176943 12.6054286,6.02289725 C12.5464286,5.95973935 12.4844286,5.9206416 12.4124286,5.9046015 C12.3694286,5.89357394 12.3284286,5.88956391 12.2894286,5.88956391 L12.2084286,5.88956391 C12.2054286,5.88956391 12.2054286,5.88956391 12.2034286,5.88956391 Z M12.2304286,6.1442005 C12.2124286,6.1442005 12.1914286,6.14019048 12.1694286,6.1281604 C12.1484286,6.12415038 12.1324286,6.10109273 12.1154286,6.07703258 C12.0934286,6.05397494 12.0724286,6.02991479 12.0314286,5.99883709 C12.0424286,5.9517193 12.1014286,5.85447619 12.1834286,5.85447619 L12.2534286,5.85848622 C12.3324286,5.85447619 12.3754286,5.86149373 12.4194286,5.87352381 C12.5254286,5.89357394 12.6154286,5.97577945 12.6774286,6.09307268 C12.5764286,6.02590476 12.4494286,5.98680702 12.3824286,6.05397494 C12.3244286,6.10911279 12.2854286,6.1442005 12.2304286,6.1442005 L12.2304286,6.1442005 Z" id="Fill-718" fill="#E9C233"></path>
                        <path d="M12.1457143,5.92533333 C12.1121429,5.92533333 12.1121429,5.9847619 12.1457143,5.9847619 C12.1821429,5.9847619 12.1821429,5.92533333 12.1457143,5.92533333" id="Fill-719" fill="#FFFFFE"></path>
                        <path d="M12.1457143,6.00914286 C12.1178571,6.00914286 12.0942857,5.9847619 12.0942857,5.9527619 C12.0942857,5.88952381 12.2,5.88952381 12.2,5.9527619 C12.2,5.9847619 12.1764286,6.00914286 12.1457143,6.00914286" id="Fill-720" fill="#FFFFFE"></path>
                        <path d="M12.4607143,7.41333333 L12.4607143,8.64304762 C12.3964286,8.71695238 12.3214286,8.78857143 12.2392857,8.84190476 C12.1557143,8.78857143 12.0814286,8.71695238 12.0157143,8.64304762 L12.0157143,7.41104762 C12.0971429,7.37828571 12.1735714,7.33638095 12.2392857,7.28609524 C12.3007143,7.33942857 12.3757143,7.38133333 12.4607143,7.41333333" id="Fill-721" fill="#FFFFFE"></path>
                    </g>
                </g>
            </g>
        </g>
    </g>
</svg>